# Blender v2.91.0 OBJ File: 'Forest.blend'
# www.blender.org
mtllib flower_yellow.mtl
o flower_yellow
v -0.322318 0.428269 0.049466
v -0.242816 0.535492 -0.104735
v -0.151097 0.535492 0.077427
v -0.278951 0.566380 0.212364
v -0.477275 0.535492 0.127485
v -0.444403 0.535492 -0.073797
v -0.167362 0.708984 -0.028553
v -0.217283 0.678096 0.181314
v -0.401821 0.708984 0.203667
v -0.493539 0.708984 0.021505
v -0.348636 0.708984 -0.122017
v -0.322318 0.816208 0.049466
v -0.211822 0.291588 -0.141274
v -0.136368 0.603174 -0.065092
v -0.111578 0.269751 -0.143850
v -0.080351 0.341552 -0.112321
v -0.220116 0.437902 -0.118220
v -0.442431 0.437902 -0.084102
v -0.310625 0.224554 -0.163439
v -0.409144 0.224554 -0.148319
v -0.577636 0.411393 0.122138
v -0.532421 0.411393 -0.154724
v -0.606635 0.335025 -0.031228
v -0.596511 0.335025 -0.093221
v -0.351194 0.438911 0.308132
v -0.567696 0.438911 0.196504
v -0.474127 0.378101 0.312620
v -0.552303 0.378101 0.272312
v -0.083066 0.412165 0.147595
v -0.250237 0.412165 0.313173
v -0.105805 0.358298 0.228379
v -0.170383 0.358298 0.292342
v -0.157797 0.469800 0.282303
v -0.050031 0.647990 0.304977
v -0.094697 0.491111 0.296279
v -0.039884 0.581743 0.307811
v -0.464850 0.485855 0.230014
v -0.359545 0.727984 0.336335
v -0.402254 0.546044 0.312516
v -0.365380 0.630830 0.349746
v -0.557437 0.549044 0.278659
v -0.577942 0.767772 0.145047
v -0.593101 0.639515 0.317630
v -0.600750 0.721109 0.267787
v -0.176573 0.722669 -0.150089
v -0.418306 0.889938 -0.028379
v -0.282979 0.794736 -0.220216
v -0.391529 0.869848 -0.165562
v -0.157828 0.704620 0.321442
v -0.288068 0.875874 0.157955
v -0.190860 0.792657 0.372524
v -0.251857 0.872862 0.295956
v -0.458637 0.767197 0.278612
v -0.358032 0.902882 0.083480
v -0.533351 0.932289 0.206192
v -0.502004 0.974566 0.145393
v -0.581590 0.758960 -0.053557
v -0.383676 0.758960 -0.249584
v -0.554755 0.747925 -0.191503
v -0.485333 0.747925 -0.260263
v -0.323724 0.477115 -0.175494
v -0.467728 0.713210 -0.199013
v -0.456022 0.498000 -0.248878
v -0.512995 0.591407 -0.258183
v -0.521033 0.483949 0.023961
v -0.579334 0.689800 0.137038
v -0.659880 0.503543 0.110204
v -0.682678 0.584037 0.154421
v -0.037874 0.481708 -0.012218
v -0.054138 0.655200 -0.118197
v -0.006366 0.401614 -0.093714
v -0.014433 0.487666 -0.146280
v -0.010287 -0.333220 0.001579
v -0.271066 0.606981 0.041600
v -0.000084 -0.333301 -0.041826
v -0.268253 0.610036 0.023579
v 0.037121 -0.333488 -0.064865
v -0.256508 0.617116 0.014491
v 0.079564 -0.333664 -0.054049
v -0.242673 0.624099 0.019654
v 0.102354 -0.333734 -0.015708
v -0.234886 0.626883 0.036048
v 0.092111 -0.333664 0.027702
v -0.237738 0.623814 0.054075
v 0.054864 -0.333488 0.050749
v -0.249552 0.616694 0.063173
v 0.012462 -0.333301 0.039926
v -0.263350 0.609724 0.058005
v 0.016316 -0.084303 -0.002504
v -0.027575 0.161963 0.004232
v -0.124545 0.414794 0.019114
v -0.119063 0.417840 -0.005379
v -0.020907 0.163503 -0.026505
v 0.024791 -0.083594 -0.039581
v -0.100593 0.423622 -0.018010
v 0.003555 0.166765 -0.042567
v 0.055975 -0.081882 -0.059186
v -0.079892 0.428793 -0.011391
v 0.031563 0.169905 -0.034558
v 0.091601 -0.080170 -0.049834
v -0.069150 0.430284 0.010612
v 0.046689 0.171066 -0.007165
v 0.110800 -0.079461 -0.017004
v -0.074731 0.427172 0.035120
v 0.039994 0.169503 0.023576
v 0.102329 -0.080170 0.020072
v -0.093297 0.421327 0.047767
v 0.015417 0.166145 0.039656
v 0.071147 -0.081882 0.039676
v -0.113902 0.416219 0.041132
v -0.012564 0.163027 0.031642
v 0.035519 -0.083594 0.030325
vn -0.7832 -0.5709 -0.2463
vn -0.4902 -0.2550 -0.8335
vn 0.2136 0.3245 -0.9215
vn 0.6838 0.6252 -0.3762
vn 0.7561 0.6052 0.2490
vn 0.4676 0.3077 0.8287
vn -0.4716 0.8787 0.0748
vn -0.7145 -0.5853 0.3833
vn -0.2361 -0.2626 0.9356
vn -0.0045 -1.0000 0.0004
vn -0.2466 0.0600 0.9673
vn -0.2509 -0.0563 0.9664
vn -0.2581 -0.1403 0.9559
vn -0.8557 0.0998 0.5078
vn -0.8493 -0.1683 0.5004
vn -0.8177 -0.3446 0.4612
vn 0.5262 0.0034 0.8504
vn 0.5238 0.1189 0.8435
vn 0.5185 0.1935 0.8329
vn 0.9728 -0.0323 0.2296
vn 0.9469 0.2336 0.2208
vn 0.8970 0.3861 0.2150
vn 0.8591 -0.0323 -0.5107
vn 0.8371 0.2336 -0.4946
vn 0.7995 0.3887 -0.4579
vn 0.2470 0.0034 -0.9690
vn 0.2468 0.1180 -0.9619
vn 0.2498 0.1925 -0.9490
vn -0.5253 0.0600 -0.8488
vn -0.5293 -0.0550 -0.8467
vn -0.5311 -0.1354 -0.8364
vn -0.9686 0.0998 -0.2278
vn -0.9607 -0.1659 -0.2227
vn -0.9169 -0.3359 -0.2157
vn -0.7879 -0.5749 -0.2205
vn -0.4907 -0.2554 -0.8331
vn 0.1909 0.3103 -0.9313
vn 0.6631 0.6195 -0.4202
vn 0.7608 0.6091 0.2241
vn 0.4605 0.3025 0.8346
vn -0.4715 0.8787 0.0751
vn -0.4717 0.8785 0.0753
vn -0.4718 0.8785 0.0750
vn -0.4718 0.8785 0.0749
vn -0.6956 -0.5799 0.4241
vn -0.2237 -0.2548 0.9408
vn -0.0045 -1.0000 0.0006
vn -0.0044 -1.0000 0.0008
vn -0.0044 -1.0000 0.0010
vn -0.2561 0.0590 0.9649
vn -0.2689 -0.0576 0.9614
vn -0.2708 -0.1440 0.9518
vn -0.8599 0.0987 0.5008
vn -0.8621 -0.1667 0.4786
vn -0.8359 -0.3457 0.4264
vn 0.5321 0.0040 0.8467
vn 0.5321 0.1196 0.8382
vn 0.5108 0.1910 0.8382
vn 0.9745 -0.0312 0.2221
vn 0.9476 0.2335 0.2182
vn 0.8884 0.3843 0.2511
vn 0.8631 -0.0312 -0.5041
vn 0.8472 0.2326 -0.4777
vn 0.8169 0.3897 -0.4252
vn 0.2537 0.0040 -0.9673
vn 0.2606 0.1190 -0.9581
vn 0.2546 0.1938 -0.9474
vn -0.5336 0.0590 -0.8437
vn -0.5428 -0.0560 -0.8380
vn -0.5302 -0.1351 -0.8371
vn -0.9705 0.0987 -0.2199
vn -0.9620 -0.1655 -0.2170
vn -0.9099 -0.3345 -0.2453
vn 0.5422 -0.7947 -0.2730
vn -0.0921 -0.7947 -0.6000
vn 0.3836 -0.7523 0.5357
vn -0.1704 -0.7288 0.6632
vn -0.5991 -0.7947 -0.0978
vn -0.1490 -0.1876 -0.9709
vn 0.8773 -0.1876 -0.4417
vn 0.6912 -0.1876 0.6979
vn -0.3489 -0.2454 0.9045
vn -0.9694 -0.1876 -0.1583
vn 0.4501 0.1876 -0.8730
vn 0.9343 0.2454 0.2584
vn 0.1490 0.1876 0.9709
vn -0.8773 0.1876 0.4417
vn -0.6912 0.1876 -0.6979
vn 0.2782 0.7947 -0.5396
vn 0.6342 0.7288 0.2581
vn 0.2019 0.7523 0.6272
vn -0.5422 0.7947 0.2730
vn -0.4272 0.7947 -0.4313
vn 0.2446 0.1740 -0.9539
vn 0.0255 0.2316 -0.9725
vn -0.1509 0.1008 -0.9834
vn -0.1463 0.2641 -0.9533
vn -0.7687 0.6271 -0.1255
vn -0.8091 0.5726 -0.1321
vn -0.3747 0.6832 0.6268
vn -0.3253 0.7043 0.6310
vn 0.6377 0.6154 0.4633
vn 0.5580 0.6093 0.5634
vn -0.5511 0.2313 0.8017
vn -0.2189 0.0082 0.9757
vn -0.9230 0.2905 0.2525
vn -0.8321 0.1246 0.5404
vn 0.8447 0.3345 0.4179
vn 0.9301 0.2511 0.2683
vn 0.5843 0.8102 0.0469
vn 0.5654 0.8247 -0.0104
vn -0.8696 -0.2618 0.4185
vn -0.8657 -0.4509 0.2173
vn -0.8379 -0.1381 -0.5280
vn -0.5438 -0.5311 -0.6497
vn 0.2799 0.9175 0.2826
vn -0.0972 0.9904 -0.0981
vn 0.5326 0.2441 -0.8104
vn 0.4995 0.2212 -0.8376
vn -0.8067 0.0922 -0.5837
vn -0.4667 0.3206 -0.8242
vn 0.6772 0.4288 0.5980
vn 0.9639 0.1987 0.1774
vn 0.1195 0.3552 -0.9271
vn 0.3593 0.2398 -0.9019
vn -0.3138 0.7288 0.6086
vn 0.6046 0.5116 0.6105
vn -0.2225 0.3731 0.9007
usemtl GreenLeaves
s off
f 91//1 76//1 92//1
f 92//2 78//2 95//2
f 95//3 80//3 98//3
f 98//4 82//4 101//4
f 82//5 104//5 101//5
f 84//6 107//6 104//6
f 82//7 80//7 76//7
f 88//8 91//8 110//8
f 86//9 110//9 107//9
f 83//10 85//10 87//10
f 85//11 112//11 87//11
f 108//12 112//12 109//12
f 107//13 111//13 108//13
f 87//14 89//14 73//14
f 111//15 89//15 112//15
f 110//16 90//16 111//16
f 83//17 109//17 85//17
f 105//18 109//18 106//18
f 104//19 108//19 105//19
f 81//20 106//20 83//20
f 102//21 106//21 103//21
f 101//22 105//22 102//22
f 100//23 81//23 79//23
f 100//24 102//24 103//24
f 99//25 101//25 102//25
f 97//26 79//26 77//26
f 97//27 99//27 100//27
f 96//28 98//28 99//28
f 94//29 77//29 75//29
f 94//30 96//30 97//30
f 93//31 95//31 96//31
f 89//32 75//32 73//32
f 89//33 93//33 94//33
f 90//34 92//34 93//34
f 91//35 74//35 76//35
f 92//36 76//36 78//36
f 95//37 78//37 80//37
f 98//38 80//38 82//38
f 82//39 84//39 104//39
f 84//40 86//40 107//40
f 78//41 76//41 80//41
f 76//42 74//42 82//42
f 74//43 88//43 84//43
f 88//44 86//44 84//44
f 84//44 82//44 74//44
f 88//45 74//45 91//45
f 86//46 88//46 110//46
f 87//47 73//47 83//47
f 73//48 75//48 79//48
f 75//49 77//49 79//49
f 79//48 81//48 73//48
f 81//47 83//47 73//47
f 85//50 109//50 112//50
f 108//51 111//51 112//51
f 107//52 110//52 111//52
f 87//53 112//53 89//53
f 111//54 90//54 89//54
f 110//55 91//55 90//55
f 83//56 106//56 109//56
f 105//57 108//57 109//57
f 104//58 107//58 108//58
f 81//59 103//59 106//59
f 102//60 105//60 106//60
f 101//61 104//61 105//61
f 100//62 103//62 81//62
f 100//63 99//63 102//63
f 99//64 98//64 101//64
f 97//65 100//65 79//65
f 97//66 96//66 99//66
f 96//67 95//67 98//67
f 94//68 97//68 77//68
f 94//69 93//69 96//69
f 93//70 92//70 95//70
f 89//71 94//71 75//71
f 89//72 90//72 93//72
f 90//73 91//73 92//73
usemtl Material.002
f 1//74 2//74 3//74
f 2//75 1//75 6//75
f 1//76 3//76 4//76
f 1//77 4//77 5//77
f 1//78 5//78 6//78
f 2//79 6//79 11//79
f 3//80 2//80 7//80
f 4//81 3//81 8//81
f 5//82 4//82 9//82
f 6//83 5//83 10//83
f 2//84 11//84 7//84
f 3//85 7//85 8//85
f 4//86 8//86 9//86
f 5//87 9//87 10//87
f 6//88 10//88 11//88
f 7//89 11//89 12//89
f 8//90 7//90 12//90
f 9//91 8//91 12//91
f 10//92 9//92 12//92
f 11//93 10//93 12//93
f 2//94 14//94 13//94
f 14//95 15//95 13//95
f 2//96 18//96 6//96
f 18//97 19//97 20//97
f 6//98 21//98 5//98
f 22//99 23//99 21//99
f 5//100 25//100 4//100
f 26//101 27//101 25//101
f 4//102 29//102 3//102
f 30//103 31//103 29//103
f 8//104 33//104 34//104
f 34//105 35//105 36//105
f 9//106 37//106 38//106
f 38//107 39//107 40//107
f 5//108 42//108 41//108
f 41//109 44//109 43//109
f 12//110 45//110 46//110
f 45//111 48//111 46//111
f 8//112 50//112 12//112
f 49//113 52//113 50//113
f 9//114 54//114 12//114
f 53//115 56//115 54//115
f 11//116 57//116 10//116
f 58//117 59//117 57//117
f 11//118 61//118 62//118
f 62//119 63//119 64//119
f 10//120 65//120 66//120
f 66//121 67//121 68//121
f 7//122 69//122 70//122
f 70//123 71//123 72//123
f 2//124 7//124 14//124
f 14//125 16//125 15//125
f 2//96 17//96 18//96
f 18//97 17//97 19//97
f 6//98 22//98 21//98
f 22//99 24//99 23//99
f 5//126 26//126 25//126
f 26//101 28//101 27//101
f 4//127 30//127 29//127
f 30//103 32//103 31//103
f 8//128 4//128 33//128
f 34//105 33//105 35//105
f 9//106 5//106 37//106
f 38//107 37//107 39//107
f 5//108 10//108 42//108
f 41//109 42//109 44//109
f 12//110 7//110 45//110
f 45//111 47//111 48//111
f 8//112 49//112 50//112
f 49//113 51//113 52//113
f 9//114 53//114 54//114
f 53//115 55//115 56//115
f 11//116 58//116 57//116
f 58//117 60//117 59//117
f 11//118 2//118 61//118
f 62//119 61//119 63//119
f 10//120 6//120 65//120
f 66//121 65//121 67//121
f 7//122 3//122 69//122
f 70//123 69//123 71//123
